<svg width="22" height="13" viewBox="0 0 22 13" fill="none" xmlns="http://www.w3.org/2000/svg">
<path d="M11.6499 5.00012C10.6999 2.31012 7.89994 0.500121 4.76994 1.12012C2.47994 1.58012 0.61994 3.41012 0.13994 5.70012C-0.68006 9.57012 2.25994 13.0001 5.99994 13.0001C8.60994 13.0001 10.8299 11.3301 11.6499 9.00012H15.9999V11.0001C15.9999 12.1001 16.8999 13.0001 17.9999 13.0001C19.0999 13.0001 19.9999 12.1001 19.9999 11.0001V9.00012C21.0999 9.00012 21.9999 8.10012 21.9999 7.00012C21.9999 5.90012 21.0999 5.00012 19.9999 5.00012H11.6499ZM5.99994 9.00012C4.89994 9.00012 3.99994 8.10012 3.99994 7.00012C3.99994 5.90012 4.89994 5.00012 5.99994 5.00012C7.09994 5.00012 7.99994 5.90012 7.99994 7.00012C7.99994 8.10012 7.09994 9.00012 5.99994 9.00012Z" fill="#213E7A"/>
</svg>
